<?xml version="1.0" encoding="utf-8"?>
<!-- Generator: Adobe Illustrator 25.4.1, SVG Export Plug-In . SVG Version: 6.00 Build 0)  -->
<svg version="1.1" id="Capa_1" xmlns="http://www.w3.org/2000/svg" xmlns:xlink="http://www.w3.org/1999/xlink" x="0px" y="0px"
	 viewBox="0 0 576 512" style="enable-background:new 0 0 576 512;" xml:space="preserve">
<style type="text/css">
	.st0{fill:#FFFFFF;}
</style>
<path class="st0" d="M64,0C28.7,0,0,28.7,0,64v288c0,35.3,28.7,64,64,64h176l-10.7,32H160c-17.7,0-32,14.3-32,32s14.3,32,32,32h256
	c17.7,0,32-14.3,32-32s-14.3-32-32-32h-69.3L336,416h176c35.3,0,64-28.7,64-64V64c0-35.3-28.7-64-64-64H64z M512,64v224H64V64H512z"
	/>
</svg>
