<?xml version="1.0" encoding="utf-8"?>
<!-- Generator: Adobe Illustrator 25.4.1, SVG Export Plug-In . SVG Version: 6.00 Build 0)  -->
<svg version="1.1" id="Capa_1" xmlns="http://www.w3.org/2000/svg" xmlns:xlink="http://www.w3.org/1999/xlink" x="0px" y="0px"
	 viewBox="0 0 384 512" style="enable-background:new 0 0 384 512;" xml:space="preserve">
<style type="text/css">
	.st0{fill:#FFFFFF;}
</style>
<path class="st0" d="M223.5,32C100,32,0,132.3,0,256s100,224,223.5,224c60.6,0,115.5-24.2,155.8-63.4c5-4.9,6.3-12.5,3.1-18.7
	s-10.1-9.7-17-8.5c-9.8,1.7-19.8,2.6-30.1,2.6c-96.9,0-175.5-78.8-175.5-176c0-65.8,36-123.1,89.3-153.3c6.1-3.5,9.2-10.5,7.7-17.3
	s-7.3-11.9-14.3-12.5C236.2,32.4,229.9,32.1,223.5,32L223.5,32z"/>
</svg>
