<?xml version="1.0" encoding="utf-8"?>
<!-- Generator: Adobe Illustrator 25.4.1, SVG Export Plug-In . SVG Version: 6.00 Build 0)  -->
<svg version="1.1" id="Capa_1" xmlns="http://www.w3.org/2000/svg" xmlns:xlink="http://www.w3.org/1999/xlink" x="0px" y="0px"
	 viewBox="0 0 512 512" style="enable-background:new 0 0 512 512;" xml:space="preserve">
<style type="text/css">
	.st0{fill:#FFFFFF;}
</style>
<path class="st0" d="M361.5,1.2c5,2.1,8.6,6.6,9.6,11.9L391,121l107.9,19.8c5.3,1,9.8,4.6,11.9,9.6c2.1,5,1.5,10.7-1.6,15.2
	L446.9,256l62.3,90.3c3.1,4.5,3.7,10.2,1.6,15.2s-6.6,8.6-11.9,9.6L391,391l-19.9,107.9c-1,5.3-4.6,9.8-9.6,11.9
	c-5,2.1-10.7,1.5-15.2-1.6L256,446.9l-90.3,62.3c-4.5,3.1-10.2,3.7-15.2,1.6s-8.6-6.6-9.6-11.9L121,391L13.1,371.1
	c-5.3-1-9.8-4.6-11.9-9.6s-1.5-10.7,1.6-15.2L65.1,256L2.8,165.7c-3.1-4.5-3.7-10.2-1.6-15.2s6.6-8.6,11.9-9.6L121,121l19.9-107.9
	c1-5.3,4.6-9.8,9.6-11.9s10.7-1.5,15.2,1.6L256,65.1l90.3-62.3C350.8-0.3,356.5-0.9,361.5,1.2z M160,256c0-53,43-96,96-96
	s96,43,96,96s-43,96-96,96S160,309,160,256z M384,256c0-70.7-57.3-128-128-128s-128,57.3-128,128s57.3,128,128,128
	S384,326.7,384,256z"/>
</svg>
