<?xml version="1.0" encoding="utf-8"?>
<!-- Generator: Adobe Illustrator 25.4.1, SVG Export Plug-In . SVG Version: 6.00 Build 0)  -->
<svg version="1.1" id="Capa_1" xmlns="http://www.w3.org/2000/svg" xmlns:xlink="http://www.w3.org/1999/xlink" x="0px" y="0px"
	 viewBox="0 0 42 42" style="enable-background:new 0 0 42 42;" xml:space="preserve">
<style type="text/css">
	.st0{fill:none;}
	.st1{fill:#EFEFEF;}
</style>
<path d="M39.7,42H2.3C1,42,0,41,0,39.7V2.3C0,1,1,0,2.3,0h37.4C41,0,42,1,42,2.3v37.4C42,41,41,42,39.7,42z"/>
<rect x="3.5" y="7" class="st0" width="28.8" height="14"/>
<g>
	<path class="st1" d="M13.5,10c0,0.5,0.1,1.3,0.1,2.4s0.1,2.1,0.2,3s0.1,1.8,0.1,2.7c0,0.6,0,1.3-0.1,1.9c-0.3,0.1-0.6,0.2-0.9,0.2
		c-0.4,0.1-0.9,0.1-1.3,0c-0.4,0-0.7-0.2-0.7-0.4c-0.1-0.8-0.1-1.6,0-2.4c0-1.5,0.1-2.5,0-2.9c-0.4-0.1-0.8-0.1-1.3-0.1
		s-1,0-1.3-0.1c-0.4,3.3-1.2,5.4-2.5,6.4c-0.5-0.2-0.9-0.4-1.4-0.8c-0.7-0.5-0.9-0.8-0.9-1.1c0.5-0.7,0.8-1.4,1.1-2.1
		c0.3-0.8,0.5-1.5,0.7-2.4c0.1-0.7,0.2-1.5,0.3-2.2c0.1-0.7,0.1-1.5,0.2-2.4C5.4,9.6,5,9.6,4.6,9.5C4.4,9.3,4.4,9,4.4,8.5
		c0-0.4,0.1-0.8,0.3-1.1C5.2,7.1,5.8,7,6.4,7C7.2,7,8,7,8.8,7c0.8,0,1.5,0,2.2,0c0.1-0.2,0.5-0.4,1.1-0.4c0.4-0.1,0.8,0.1,1.1,0.4
		c0.4,0,0.6,0.1,0.6,0.2c0.1,0.3,0.1,0.6,0.1,0.9c0,0.4,0,0.8,0,1.2C13.7,9.7,13.6,9.9,13.5,10z M9.5,11.4h0.6h0.8c0-0.5,0-1,0-1.5
		L10,9.9H9.1c-0.3,0-0.7,0-1,0c0.1,0.6,0.1,1.2,0.2,1.7C8.6,11.4,9,11.4,9.5,11.4L9.5,11.4z"/>
	<path class="st1" d="M18.8,17.5c0.9,0,1.3,0,1.3,0.2c0.1,0.3,0.1,0.6,0.1,0.9c0,0.4,0,0.9,0,1.3c0,0.5-0.1,0.7-0.2,0.7
		c-0.4,0.1-0.7,0.1-1.1,0c-0.4-0.1-0.8-0.1-1.2-0.1c-0.4,0-1,0-1.8-0.1c-0.5,0-0.9-0.1-1.4-0.2c-0.1-0.1-0.2-0.4-0.2-1
		c0-0.4,0-0.8,0.1-1.1c0.1-0.1,0.5-0.3,1.1-0.3c0-0.9,0.1-1.7,0.1-2.5s0-1.7,0.1-2.6S16,10.7,16,9.8c-0.5,0-0.9-0.1-1.4-0.2
		c-0.1-0.1-0.2-0.4-0.2-1c0-0.4,0-0.8,0.1-1.2c0.5-0.3,1.1-0.4,1.7-0.4C17.1,7,18,7,18.9,7.1c0.6,0,1.2,0.1,1.6,0.5
		c0,0.5-0.1,1.1-0.2,1.6c-0.1,0.8-0.2,1.2-0.4,1.2s-0.1,0-0.3,0l-0.4-0.1L19,10.2l-0.4-0.1C18.7,11.5,18.8,14,18.8,17.5z"/>
</g>
<rect x="1.9" y="22.3" class="st0" width="23" height="14.3"/>
<g>
	<path class="st1" d="M11.1,35.5c-0.4-0.5-0.8-1.1-1.1-1.7c-0.5-0.9-0.8-1.5-0.9-1.6c-0.7-1-1.2-2-1.6-3.1c-0.1,0.1-0.3,0.1-0.5,0.2
		c0,1,0.1,2.3,0.3,4c0,0.2,0,0.3,0,0.5c0,0.2,0,0.4,0,0.5c0,0.1,0,0.3,0,0.5c0,0.2-0.1,0.3-0.1,0.5c-0.2,0.1-0.4,0.1-0.6,0.1
		c-0.3,0-0.6,0-0.9,0c-0.3,0-0.6,0-0.9-0.1c-0.2,0-0.4-0.2-0.5-0.3C4.1,34.1,4.1,32.6,4,30c-0.3,0-0.5,0.1-0.6,0.1L3,30.3
		c-0.1,0-0.2,0-0.3,0c0,0-0.1,0-0.2-0.1s-0.2-0.1-0.2-0.1c0-0.1-0.1-0.1-0.1-0.2c0-0.1-0.1-0.2-0.1-0.3C2,29.5,2,29.3,2,29.2
		c-0.1-0.2-0.1-0.4-0.1-0.5c-0.1-0.2-0.1-0.5-0.1-0.7c0-0.2,0-0.3,0.1-0.4c0-0.1,0.1-0.2,0.2-0.3c0.1-0.1,0.2-0.1,0.3-0.1
		c0.2,0,0.3-0.1,0.5-0.1c0.1,0,0.3,0,0.6-0.1c0.2,0,0.4-0.1,0.6-0.1c0-0.4,0-0.9,0.1-1.5s0.1-1.2,0.1-1.8c0-0.3,0.1-0.5,0.1-0.8
		c0.1-0.2,0.5-0.4,1-0.3c0.4,0,0.8,0.1,1.1,0.4c0.2,0.1,0.2,1.2,0.2,3.3c0.4-0.1,0.8-0.3,1.2-0.5c0.4-0.2,0.8-0.4,1.2-0.7
		c0.4-0.3,0.7-0.6,1-1c0.3-0.3,0.5-0.7,0.6-1.2c1.2-0.5,2-0.4,2.2,0.4c0.1,0.8-0.1,1.7-0.7,2.4c-0.1,0.2-0.3,0.4-0.4,0.6
		c-0.6,0.7-1.3,1.3-2.1,1.7c0.4,0.7,0.8,1.4,1.2,2c0.6,0.8,1.1,1.6,1.6,2.3c0.4,0.6,0.7,1.2,1,1.8c-0.4,0.4-0.8,0.7-1.3,1
		C11.7,35.5,11.3,35.7,11.1,35.5z"/>
	<path class="st1" d="M14.2,25.2c-0.2-0.2-0.3-0.4-0.3-0.7c-0.1-0.4-0.1-0.7,0-1.1c0.1-0.3,0.3-0.5,0.5-0.5c0.2-0.2,0.4-0.3,0.7-0.3
		c0.3,0,0.6,0,0.9,0c0.8,0,1.5-0.1,2.3-0.1h0.9l1.2-0.1c0.4,0,0.8,0,1.2,0c0.3,0,0.7,0,1,0c0.3,0,0.4,0.1,0.4,0.2s0,0.2,0.1,0.4
		c0,0.2,0.1,0.5,0.1,0.7c0,0.3,0,0.6,0,0.8c0,0.2,0,0.4-0.1,0.6c0,0.2-0.2,0.3-0.3,0.3c0,0.7,0.1,1.7,0.2,3s0.1,2.6,0.2,3.7
		c0,0.1,0,0.5,0.1,1c0,0.4,0,0.9,0,1.3c0,0.3-0.1,0.6-0.3,0.7c-0.6,0.1-1.2,0.1-1.8,0c-1-0.1-1.6-0.1-1.8-0.1c-0.7,0-1.6,0-2.9,0
		c-0.3,0-0.6,0.1-0.9,0.2c-0.3,0.1-0.6,0.1-0.9,0.1c-0.4,0-0.6-0.3-0.7-0.9c-0.1-0.7-0.1-1.3,0-2c0.1-0.5,0.1-0.9,0.1-1.4
		c0-0.7,0.1-1.7,0.1-3.1S14.2,25.7,14.2,25.2C14.2,25.2,14.2,25.2,14.2,25.2z M19.4,25.4c-0.5,0-1.3,0-2.4,0
		c0.1,2.1,0.2,4.4,0.2,7.1h1h0.9l1.1-0.1c0-0.8,0-1.9,0-3.3s0-2.6,0-3.6C20,25.5,19.7,25.4,19.4,25.4z"/>
</g>
<g>
	<path class="st1" d="M32.4,5.6c0.4-0.1,0.8-0.2,1.3-0.2c1.4,0.1,2.8,0.7,3.8,1.6l1.6,1.1l-0.6,1.1c-0.5,1-1.2,1.8-2.2,2.4
		c-0.1,0-0.1,0-0.2,0c-0.2,0-0.5-0.2-1-0.8c-0.4-0.5-1.1-0.9-1.8-1c-0.9,0.1-1.6,0.5-2.2,1.2l-0.3,0.3l0.3,1.3
		c0.1,0.4,0.2,0.8,0.2,1.3c0,0.2,0,0.4-0.1,0.5c-0.1,0.1-0.1,0.3-0.2,0.4c0,0.3,0.1,0.6,0.2,0.9c0.2,0.6,0.4,1.2,0.8,1.7
		c0.6,0.7,1.2,1.4,1.9,2c1.5,1.3,2.7,2.7,3.8,4.3c0.7,1.3,1,2.7,1,4.1c0,0.4,0,0.8,0,1c-0.1,1.7-0.8,3.4-2,4.6
		c-1.1,1.2-2.7,1.9-4.3,1.8c-0.1,0-0.2,0-0.2,0s-0.2,0-0.2,0c-0.8,0-1.5-0.3-2.1-0.7c-0.6-0.5-1.1-1-1.5-1.7c-0.4-0.5-0.7-1-0.9-1.5
		c0-0.1,0.4-0.2,1.1-0.2c0.7,0,0.9,0,0.9-0.2L29.4,31c-0.1-0.1-0.1-0.1,0.1-0.1h0.4h0.3c0.5,0,1.1-0.2,1.5-0.5
		c0.6-0.3,1.2-0.5,1.8-0.6c0.5,0,0.9-0.2,1.3-0.5c0.4-0.2,0.7-0.6,0.8-1c0-0.2,0.1-0.3,0.1-0.5c-0.1-0.7-0.3-1.4-0.8-2
		c-0.9-1.1-1.9-2.1-3-3.1c-0.8-0.7-1.6-1.5-2.2-2.5c-0.5-0.9-1-1.8-1.2-2.8c-0.5-1.8-0.8-3.6-0.8-5.5c0-1,0.1-2,0.2-3
		c0.1-0.6,0.2-1.1,0.3-1.7c0.1-0.3,0.3-0.4,0.5-0.4s0.3-0.2,0.7-0.5l0.4-0.5l-0.1,0.6c0,0.2,0,0.4,0,0.6c0.1,0.1,0.1,0,0.2-0.1
		c0.3-0.3,0.7-0.5,1.1-0.7C31.5,6,31.9,5.8,32.4,5.6z"/>
</g>
<g>
	<path class="st1" d="M26.2,4.9c0.3,0.4,0.4,0.8,0.4,1.3c0,0.5-0.2,1-0.4,1.5c-0.2,0.5-0.5,1-0.9,1.4c-0.3,0.4-0.7,0.6-1.1,0.8
		c-0.4-0.4-0.6-0.8-0.8-1.3c-0.2-0.5-0.4-0.9-0.7-1.3c0.2-0.1,0.4-0.2,0.6-0.4c0.1-0.1,0.3-0.3,0.4-0.5c0.1-0.1,0.1-0.3,0.1-0.4
		c0.1-0.2,0.1-0.3,0.1-0.5c0-0.2,0.1-0.4,0.1-0.5c0.3-0.1,0.7-0.2,1-0.1C25.4,4.8,25.8,4.9,26.2,4.9z"/>
</g>
</svg>
