<svg id="Capa_1" data-name="Capa 1" xmlns="http://www.w3.org/2000/svg" viewBox="0 0 42 42.02"><defs><style>.cls-1{fill:#e0115f;}.cls-2{fill:none;}.cls-3{isolation:isolate;}.cls-4{fill:#efefef;}</style></defs><path class="cls-1" d="M43.69,46H6.31A2.32,2.32,0,0,1,4,43.7V6.3A2.32,2.32,0,0,1,6.31,4H43.69A2.32,2.32,0,0,1,46,6.3V43.68A2.32,2.32,0,0,1,43.69,46Z" transform="translate(-4 -3.99)"/><rect class="cls-2" x="3.48" y="7.03" width="28.81" height="13.97"/><g class="cls-3"><path class="cls-4" d="M17.45,14c0,.5.06,1.31.12,2.41s.12,2.09.19,3,.08,1.75.08,2.66a8.7,8.7,0,0,1-.15,1.88,3.88,3.88,0,0,1-.87.19,4.63,4.63,0,0,1-1.29,0c-.44-.05-.67-.19-.73-.44a9.52,9.52,0,0,1,0-2.42c0-1.54.06-2.51,0-2.91-.35-.06-.79-.1-1.31-.14s-1-.05-1.33-.09c-.4,3.29-1.23,5.43-2.46,6.41a4.9,4.9,0,0,1-1.35-.77c-.65-.46-.92-.83-.87-1.08A10.36,10.36,0,0,0,8.6,20.6a11,11,0,0,0,.67-2.35A21.79,21.79,0,0,0,9.58,16c.06-.67.1-1.48.16-2.4a6.2,6.2,0,0,1-1.12-.14c-.17-.13-.25-.46-.23-1a1.74,1.74,0,0,1,.27-1.13A5.79,5.79,0,0,1,10.41,11a18.62,18.62,0,0,1,2.35,0c.75,0,1.48,0,2.17,0,.14-.23.5-.35,1.06-.35a1.27,1.27,0,0,1,1.1.39c.38,0,.6.1.61.19a4.5,4.5,0,0,1,.1.85,6.55,6.55,0,0,1,0,1.25C17.7,13.69,17.61,13.94,17.45,14Zm-4,1.39.6,0,.75,0c0-.5,0-1,0-1.47l-.85-.07-.86,0c-.33,0-.66,0-1,0a11.75,11.75,0,0,1,.16,1.73C12.62,15.42,13,15.4,13.41,15.39Z" transform="translate(-4 -3.99)"/><path class="cls-4" d="M22.81,21.51c.86,0,1.3,0,1.32.19a6.35,6.35,0,0,1,.12.87,9,9,0,0,1,0,1.28c0,.45-.08.68-.18.74a2.92,2.92,0,0,1-1.09,0,6.59,6.59,0,0,0-1.16-.1c-.36,0-1,0-1.83-.09a7.27,7.27,0,0,1-1.38-.16c-.12-.11-.18-.44-.18-1a2.83,2.83,0,0,1,.14-1.12c.08-.15.46-.27,1.14-.34.05-.87.11-1.7.13-2.49s0-1.67.06-2.65.06-1.93.11-2.83a10.62,10.62,0,0,1-1.4-.19c-.12-.1-.18-.43-.19-1a3.41,3.41,0,0,1,.09-1.16,3.28,3.28,0,0,1,1.7-.38,18.87,18.87,0,0,1,2.71,0,2.8,2.8,0,0,1,1.64.47,8.93,8.93,0,0,1-.16,1.59c-.11.77-.23,1.18-.38,1.22s-.12,0-.27,0l-.37-.08-.4-.1-.35-.09C22.73,15.48,22.77,18,22.81,21.51Z" transform="translate(-4 -3.99)"/></g><rect class="cls-2" x="1.85" y="22.29" width="23.02" height="14.26"/><g class="cls-3"><path class="cls-4" d="M15.09,39.48A10.31,10.31,0,0,1,14,37.75c-.5-.92-.81-1.46-.94-1.63A16.79,16.79,0,0,1,11.43,33c-.13.06-.31.11-.52.19,0,1,.15,2.31.33,4a2.84,2.84,0,0,0,0,.47c0,.25,0,.42,0,.55a2.59,2.59,0,0,1,0,.45,1.65,1.65,0,0,1-.14.46,2.11,2.11,0,0,1-.58.1,8.81,8.81,0,0,1-.92,0,3.56,3.56,0,0,1-.9-.09.69.69,0,0,1-.49-.35c-.07-.65-.13-2.23-.19-4.75-.29,0-.48.11-.58.13L7,34.25a2.19,2.19,0,0,0-.35,0s-.11,0-.23-.06-.17-.08-.17-.1a2.28,2.28,0,0,1-.1-.21.66.66,0,0,1-.09-.27,3.81,3.81,0,0,0-.1-.42c-.06-.23-.09-.41-.11-.5a2.91,2.91,0,0,1-.08-.68.92.92,0,0,1,.1-.44.88.88,0,0,1,.19-.27.83.83,0,0,1,.34-.15,3.94,3.94,0,0,1,.47-.1c.13,0,.32,0,.57-.09a5.09,5.09,0,0,0,.64-.14c0-.36,0-.88.1-1.54s.09-1.25.15-1.77a7.26,7.26,0,0,1,.11-.79c.14-.25.47-.35,1-.33a1.65,1.65,0,0,1,1.11.39c.16.1.23,1.19.25,3.27a9.05,9.05,0,0,0,1.25-.5,9.41,9.41,0,0,0,1.22-.69,4.5,4.5,0,0,0,1-1,2.9,2.9,0,0,0,.56-1.16c1.25-.52,2-.4,2.16.35a3.19,3.19,0,0,1-.66,2.36,3.76,3.76,0,0,1-.42.58,7.38,7.38,0,0,1-2.14,1.73,15.17,15.17,0,0,0,1.22,2c.56.81,1.09,1.6,1.58,2.33a8,8,0,0,1,1,1.85,6.54,6.54,0,0,1-1.27,1C15.72,39.54,15.3,39.66,15.09,39.48Z" transform="translate(-4 -3.99)"/><path class="cls-4" d="M18.21,29.24a1,1,0,0,1-.29-.71,2.62,2.62,0,0,1,0-1.08c.1-.34.29-.52.54-.53a1.1,1.1,0,0,1,.68-.26,3.16,3.16,0,0,1,.88,0c.75-.05,1.54-.11,2.33-.13l.87,0,1.25-.06c.38,0,.81,0,1.21,0a7.81,7.81,0,0,1,1,0c.27,0,.41.08.41.16s.05.25.09.44a5.38,5.38,0,0,1,.08.73c0,.29,0,.56,0,.81a1.48,1.48,0,0,1-.12.63.39.39,0,0,1-.33.29c0,.7.1,1.72.16,3s.13,2.58.19,3.74c0,.13,0,.48.08,1a7.34,7.34,0,0,1,0,1.31c0,.34-.12.57-.29.67a4.92,4.92,0,0,1-1.75,0c-1-.08-1.64-.1-1.81-.1-.66,0-1.62,0-2.87,0a4.61,4.61,0,0,0-.9.15,2.69,2.69,0,0,1-.93.13c-.38,0-.61-.34-.69-.86a7.48,7.48,0,0,1,0-2,10.1,10.1,0,0,0,.11-1.39c0-.67.06-1.71.06-3.14s0-2.36,0-2.83A.43.43,0,0,0,18.21,29.24Zm5.21.16c-.46,0-1.27,0-2.4,0,.13,2.08.21,4.45.23,7.08l1,0,.94,0,1.08-.06c0-.79,0-1.89,0-3.27s0-2.6,0-3.62A7.13,7.13,0,0,0,23.42,29.4Z" transform="translate(-4 -3.99)"/></g><g class="cls-3"><path class="cls-4" d="M36.4,9.59a4.78,4.78,0,0,1,1.28-.19A7,7,0,0,1,41.52,11l1.61,1.15-.63,1.12a5.68,5.68,0,0,1-2.2,2.42.35.35,0,0,1-.17,0c-.17,0-.5-.25-1-.77a2.8,2.8,0,0,0-1.79-1,3.22,3.22,0,0,0-2.18,1.23l-.32.31.32,1.27A5.06,5.06,0,0,1,35.37,18a.78.78,0,0,1-.13.5.8.8,0,0,0-.15.43,3.69,3.69,0,0,0,.19.88,5.72,5.72,0,0,0,.79,1.68A15.13,15.13,0,0,0,38,23.45a20.88,20.88,0,0,1,3.8,4.33,8,8,0,0,1,1,4.1c0,.44,0,.77,0,1a7.11,7.11,0,0,1-2,4.6,5.81,5.81,0,0,1-4.31,1.83,1.06,1.06,0,0,1-.23,0,1.06,1.06,0,0,0-.23,0,3.7,3.7,0,0,1-2.1-.73,9.67,9.67,0,0,1-1.52-1.65,4.86,4.86,0,0,1-.94-1.54c0-.14.36-.2,1.08-.2s.92,0,.92-.15l-.06-.08c-.07-.09-.06-.13.1-.11l.38,0h.31a3.54,3.54,0,0,0,1.52-.47,5.11,5.11,0,0,1,1.85-.57,2.15,2.15,0,0,0,1.29-.49,1.89,1.89,0,0,0,.79-1,1.41,1.41,0,0,0,.06-.5,3.47,3.47,0,0,0-.83-2,24.44,24.44,0,0,0-3-3.08,12.88,12.88,0,0,1-2.2-2.46,10.82,10.82,0,0,1-1.23-2.81A18.14,18.14,0,0,1,31.64,16a19.88,19.88,0,0,1,.23-3,8.16,8.16,0,0,1,.35-1.66c.11-.29.27-.42.48-.42s.35-.18.65-.54l.43-.5-.1.61a1.31,1.31,0,0,0,0,.6c.06.1.13,0,.25-.13A3.72,3.72,0,0,1,35,10.25,11.74,11.74,0,0,1,36.4,9.59Z" transform="translate(-4 -3.99)"/></g><g class="cls-3"><path class="cls-4" d="M30.16,8.92a1.76,1.76,0,0,1,.35,1.27,5.41,5.41,0,0,1-.35,1.52,4.52,4.52,0,0,1-.85,1.38,2.44,2.44,0,0,1-1.15.79,3,3,0,0,1-.75-1.27,4.47,4.47,0,0,0-.7-1.32,3.62,3.62,0,0,0,.56-.37,1.56,1.56,0,0,0,.35-.46,2.49,2.49,0,0,0,.15-.43,2.06,2.06,0,0,0,.1-.53c0-.24.08-.41.11-.54a2.11,2.11,0,0,1,1-.14A5.13,5.13,0,0,1,30.16,8.92Z" transform="translate(-4 -3.99)"/></g></svg>